<?xml version="1.0" encoding="UTF-8"?>
<svg width="96px" height="162px" viewBox="0 0 96 162" version="1.1" xmlns="http://www.w3.org/2000/svg" xmlns:xlink="http://www.w3.org/1999/xlink">
    <title>Group 29 Copy 3</title>
    <defs>
        <polygon id="path-1" points="0 0 95.8409482 0 95.8409482 95.8371754 0 95.8371754"></polygon>
        <polygon id="path-3" points="1.0581754e-13 161.860569 96 161.860569 96 2.25744085e-13 1.0581754e-13 2.25744085e-13"></polygon>
    </defs>
    <g id="Home" stroke="none" stroke-width="1" fill="none" fill-rule="evenodd">
        <g id="1600-Desktop" transform="translate(-1145.000000, -6799.000000)">
            <g id="Group-29-Copy-3" transform="translate(1145.000000, 6799.000000)">
                <path d="M35.2982905,95.232143 L53.5346468,95.232143 C59.8133226,95.232143 63.799547,91.403779 63.799547,85.4289101 C63.799547,78.3043405 58.0540225,76.3127176 51.922286,76.3127176 L35.2982905,76.3127176 L35.2982905,95.232143 Z M35.2982905,70.1849524 L49.8591791,70.1849524 C58.128485,70.1849524 61.5031243,67.1985108 61.5031243,61.4519934 C61.5031243,53.8677422 56.142819,52.7974683 49.8591791,52.7974683 L35.2982905,52.7974683 L35.2982905,70.1849524 Z M28.024796,46.6687102 L47.8625919,46.6687102 C52.6917316,46.6687102 59.0488412,46.6687102 62.3420682,48.6603332 C65.9430734,50.8048525 68.7746331,54.7116503 68.7746331,60.0749341 C68.7746331,65.8959139 65.7147219,70.2623933 60.6572306,72.3284788 L60.6572306,72.4823679 C67.4015451,73.8604201 71.0750271,78.9169185 71.0750271,85.6592473 C71.0750271,93.6992088 65.3285098,101.360901 54.4530173,101.360901 L28.024796,101.360901 L28.024796,46.6687102 Z" id="Fill-1" fill="#FEFEFE"></path>
                <g id="Group-5" transform="translate(0.159052, 26.095920)">
                    <mask id="mask-2" fill="white">
                        <use xlink:href="#path-1"></use>
                    </mask>
                    <g id="Clip-4"></g>
                    <path d="M47.9161056,0 C21.4551208,0 0,21.454128 0,47.9190841 C0,74.3810617 21.4551208,95.8371754 47.9161056,95.8371754 C74.3860259,95.8371754 95.8411467,74.3810617 95.8411467,47.9190841 C95.8411467,21.454128 74.3860259,0 47.9161056,0 M89.5217648,47.9419193 C89.5217648,70.9180603 70.8982036,89.5445999 47.9161056,89.5445999 C24.9419503,89.5445999 6.31838913,70.9180603 6.31838913,47.9419193 C6.31838913,24.967764 24.9419503,6.34519562 47.9161056,6.34519562 C70.8982036,6.34519562 89.5217648,24.967764 89.5217648,47.9419193" id="Fill-3" fill="#FEFEFE" mask="url(#mask-2)"></path>
                </g>
                <mask id="mask-4" fill="white">
                    <use xlink:href="#path-3"></use>
                </mask>
                <g id="Clip-7"></g>
                <polygon id="Fill-6" fill="#FEFEFE" mask="url(#mask-4)" points="0.258136577 138.327449 95.9007167 138.327449 95.9007167 132.04083 0.258136577 132.04083"></polygon>
                <path d="M90.3132512,124.166771 C90.4671403,123.822258 90.6746424,123.530365 90.9337718,123.26925 C91.1948869,123.012106 91.5026651,122.821482 91.8521423,122.671565 C92.1976482,122.524625 92.5729391,122.457113 92.9561726,122.457113 C93.3542987,122.457113 93.7236325,122.524625 94.0760882,122.671565 C94.4176228,122.821482 94.7184512,123.012106 94.9736093,123.26925 C95.2327387,123.530365 95.4471906,123.822258 95.5941299,124.166771 C95.7529832,124.515255 95.8244671,124.892532 95.8244671,125.299594 C95.8244671,125.710626 95.7529832,126.08691 95.5941299,126.43043 C95.4471906,126.784872 95.2327387,127.082722 94.9736093,127.339865 C94.7184512,127.603959 94.4176228,127.796569 94.0760882,127.944501 C93.7236325,128.085483 93.3542987,128.155974 92.9561726,128.155974 C92.5729391,128.155974 92.1976482,128.085483 91.8521423,127.944501 C91.5026651,127.796569 91.1948869,127.603959 90.9337718,127.339865 C90.6746424,127.082722 90.4671403,126.784872 90.3132512,126.43043 C90.1543979,126.08691 90.0898638,125.710626 90.0898638,125.299594 C90.0898638,124.892532 90.1543979,124.515255 90.3132512,124.166771 L90.3132512,124.166771 Z M90.7878254,126.261649 C90.8990227,126.564463 91.063833,126.824585 91.2792777,127.043008 C91.4867798,127.260439 91.7379666,127.433192 92.0288666,127.559281 C92.3108312,127.682393 92.6275449,127.738984 92.9561726,127.738984 C93.292743,127.738984 93.6034997,127.682393 93.8844715,127.559281 C94.1694145,127.433192 94.4176228,127.260439 94.6340604,127.043008 C94.838584,126.824585 95.0073656,126.564463 95.123527,126.261649 C95.2466383,125.96777 95.3072011,125.642121 95.3072011,125.299594 C95.3072011,124.949124 95.2466383,124.637374 95.123527,124.340517 C95.0073656,124.041674 94.838584,123.787509 94.6340604,123.569086 C94.4176228,123.355627 94.1694145,123.185852 93.8844715,123.059762 C93.6034997,122.93963 93.292743,122.872117 92.9561726,122.872117 C92.6275449,122.872117 92.3108312,122.93963 92.0288666,123.059762 C91.7379666,123.185852 91.4867798,123.355627 91.2792777,123.569086 C91.063833,123.787509 90.8990227,124.041674 90.7878254,124.340517 C90.6647141,124.637374 90.6061369,124.949124 90.6061369,125.299594 C90.6061369,125.642121 90.6647141,125.96777 90.7878254,126.261649 L90.7878254,126.261649 Z M93.1388539,123.636598 C93.5369799,123.636598 93.8268872,123.716025 94.0185039,123.869914 C94.2111135,124.032739 94.309404,124.269033 94.309404,124.589718 C94.309404,124.892532 94.2210419,125.106984 94.0572244,125.253923 C93.8844715,125.390934 93.678955,125.474332 93.423797,125.503124 L94.3798951,126.970531 L93.8268872,126.970531 L92.9144736,125.533902 L92.3664298,125.533902 L92.3664298,126.970531 L91.8412212,126.970531 L91.8412212,123.636598 L93.1388539,123.636598 Z M92.9085166,125.118898 C93.0266638,125.118898 93.1388539,125.112941 93.2431014,125.106984 C93.340399,125.10202 93.4396823,125.080177 93.5191089,125.044435 C93.6034997,125.002736 93.6690267,124.949124 93.7156899,124.878632 C93.7653315,124.801191 93.7841953,124.703894 93.7841953,124.566883 C93.7841953,124.456678 93.7653315,124.363352 93.720654,124.303782 C93.678955,124.232298 93.6203779,124.185635 93.5518724,124.151879 C93.4813813,124.111172 93.4089045,124.088337 93.316571,124.071459 C93.2282089,124.066495 93.1438181,124.057559 93.0534703,124.057559 L92.3664298,124.057559 L92.3664298,125.118898 L92.9085166,125.118898 Z" id="Fill-8" fill="#FEFEFE" mask="url(#mask-4)"></path>
                <path d="M11.8493624,5.02591915 C11.6220037,4.66254227 11.3400391,4.34384288 11.001483,4.06982098 C10.6609413,3.79480624 10.2787006,3.58134715 9.84979678,3.42745804 C9.42188576,3.27456176 8.97411809,3.19712078 8.50550092,3.19712078 C7.65067171,3.19712078 6.92292513,3.36292389 6.32623251,3.69353728 C5.72854705,4.0251435 5.24404455,4.46893984 4.87272502,5.02591915 C4.50140548,5.58289845 4.23036207,6.21731873 4.06058763,6.92818715 C3.88982036,7.63806273 3.80642239,8.37375198 3.80642239,9.13227638 C3.80642239,9.85803729 3.88982036,10.5649344 4.06058763,11.250982 C4.23036207,11.9380224 4.50140548,12.5555645 4.87272502,13.1046012 C5.24404455,13.6536378 5.72854705,14.0934628 6.32623251,14.425069 C6.92292513,14.7556824 7.65067171,14.9204927 8.50550092,14.9204927 C9.66910118,14.9204927 10.5775434,14.5660513 11.2308275,13.8561757 C11.8841116,13.1453073 12.2842233,12.2090658 12.4291769,11.0464584 L16.1115944,11.0464584 C16.0142968,12.1276535 15.7641029,13.1046012 15.3610127,13.9763085 C14.9569297,14.8490087 14.4237784,15.5926406 13.7625516,16.2042257 C13.100332,16.8187894 12.3249294,17.2874065 11.4363439,17.6100773 C10.5477584,17.932748 9.57180354,18.0945798 8.50550092,18.0945798 C7.18106171,18.0945798 5.99065496,17.8642425 4.932295,17.403568 C3.8759207,16.9438863 2.98137818,16.3104589 2.2566101,15.5022928 C1.52985635,14.6951196 0.971884211,13.7469641 0.584679346,12.6568335 C0.196481648,11.5667029 0.00287921566,10.3921814 0.00287921566,9.13227638 C0.00287921566,7.83960783 0.196481648,6.64026558 0.584679346,5.53424964 C0.971884211,4.42823369 1.52985635,3.46320002 2.2566101,2.64014148 C2.98137818,1.8160901 3.8759207,1.17074866 4.932295,0.702131488 C5.99065496,0.234507152 7.18106171,0.000198566598 8.50550092,0.000198566598 C9.45862058,0.000198566598 10.3591201,0.138202352 11.2069995,0.411231423 C12.053886,0.686246161 12.8134032,1.08635785 13.4835655,1.6115665 C14.1527349,2.13578232 14.7067358,2.78608793 15.1415966,3.56049766 C15.5794359,4.33590022 15.8534579,5.22448574 15.965648,6.22526139 L12.2842233,6.22526139 C12.2196891,5.78940771 12.0747355,5.38929602 11.8493624,5.02591915" id="Fill-9" fill="#FEFEFE" mask="url(#mask-4)"></path>
                <path d="M24.9588285,8.114424 C24.5468028,7.66268499 23.9193323,7.43631907 23.0803884,7.43631907 C22.5323446,7.43631907 22.0756415,7.52964537 21.7122646,7.71530514 C21.3488877,7.90096491 21.0579877,8.13030933 20.8405572,8.40433123 C20.622134,8.6803388 20.4692377,8.97024604 20.3798827,9.27802426 C20.2915206,9.58480966 20.2379076,9.85783873 20.2220223,10.1010828 L25.8186218,10.1010828 C25.65679,9.22838261 25.3698613,8.56616301 24.9588285,8.114424 M21.0708945,14.7038565 C21.5871676,15.2032515 22.3307995,15.4534454 23.2988117,15.4534454 C23.9937948,15.4534454 24.5914803,15.2796997 25.0918681,14.933201 C25.5922559,14.5867022 25.8980485,14.2183612 26.0132171,13.8301635 L29.0403649,13.8301635 C28.5548695,15.3333126 27.8122305,16.4075579 26.8114548,17.0528994 C25.8096863,17.6982408 24.5994229,18.0219044 23.1776861,18.0219044 C22.1927958,18.0219044 21.3042102,17.8640439 20.5129223,17.5493159 C19.7226273,17.2345878 19.052465,16.7868201 18.5024355,16.2040272 C17.9533989,15.6232199 17.5294592,14.9292296 17.2306165,14.1220564 C16.9317738,13.3148832 16.7828488,12.4262977 16.7828488,11.4572927 C16.7828488,10.5210512 16.9367379,9.64835097 17.2435233,8.84117775 C17.5493159,8.0330117 17.9871552,7.33505011 18.5510844,6.74630015 C19.1169992,6.15655735 19.7911328,5.69290435 20.574478,5.35335547 C21.3568304,5.01380658 22.2245664,4.84502498 23.1776861,4.84502498 C24.2429959,4.84502498 25.1722875,5.0505414 25.9635754,5.46256709 C26.7548633,5.87459278 27.4051689,6.42660792 27.9134994,7.12159101 C28.4218299,7.81657411 28.7891781,8.607862 29.015544,9.49545469 C29.2399243,10.3840402 29.3223294,11.3123391 29.2568025,12.281344 L20.2220223,12.281344 C20.2706711,13.3953027 20.5536285,14.2024759 21.0708945,14.7038565" id="Fill-10" fill="#FEFEFE" mask="url(#mask-4)"></path>
                <path d="M34.0776023,5.18397816 L34.0776023,7.50919301 L34.1262511,7.50919301 C34.2880829,7.12198815 34.5065062,6.76258261 34.7805281,6.43097639 C35.05455,6.100363 35.3702709,5.8174056 35.7247122,5.58309702 C36.0801464,5.34978127 36.4594086,5.1671 36.8644845,5.03803171 C37.2675747,4.90896342 37.687543,4.84542211 38.1233967,4.84542211 C38.3497627,4.84542211 38.5989637,4.88513543 38.8749713,4.9655549 L38.8749713,8.16247712 C38.7121467,8.13070646 38.5195371,8.10290714 38.2921783,8.07808631 C38.0668052,8.05425832 37.848382,8.04135149 37.6388942,8.04135149 C37.0084453,8.04135149 36.4762868,8.14758462 36.0404331,8.35707238 C35.6035866,8.56656014 35.2531166,8.85348888 34.9860445,9.21686575 C34.7199653,9.58024262 34.5293413,10.0031895 34.4171512,10.4886848 C34.3049611,10.9731873 34.2483696,11.4974031 34.2483696,12.0623251 L34.2483696,17.7065806 L30.8072104,17.7065806 L30.8072104,5.18397816 L34.0776023,5.18397816 Z" id="Fill-11" fill="#FEFEFE" mask="url(#mask-4)"></path>
                <path d="M48.0800223,5.18397816 L48.0800223,7.48437219 L45.5592194,7.48437219 L45.5592194,13.685607 C45.5592194,14.2674072 45.6575099,14.654612 45.8511123,14.8482145 C46.0447147,15.0428097 46.4329124,15.1391145 47.0127269,15.1391145 C47.2063293,15.1391145 47.3929819,15.1311719 47.5697062,15.1152865 C47.7474233,15.0994012 47.9171977,15.0745804 48.0800223,15.0428097 L48.0800223,17.7065806 C47.7891223,17.7562223 47.4644659,17.7870001 47.1090317,17.8028854 C46.7555831,17.8197636 46.4080916,17.8286991 46.0685427,17.8286991 C45.5353914,17.8286991 45.0300394,17.7919643 44.5534796,17.7184946 C44.0779126,17.6470106 43.658937,17.5060284 43.2955602,17.2955478 C42.9311905,17.0850672 42.6442617,16.7872173 42.4337811,16.3990196 C42.2242934,16.0108219 42.1210388,15.5024914 42.1210388,14.8740281 L42.1210388,7.48437219 L40.0370823,7.48437219 L40.0370823,5.18397816 L42.1210388,5.18397816 L42.1210388,1.4290838 L45.5592194,1.4290838 L45.5592194,5.18397816 L48.0800223,5.18397816 Z" id="Fill-12" fill="#FEFEFE" mask="url(#mask-4)"></path>
                <path d="M50.08346,17.7071763 L53.5236263,17.7071763 L53.5236263,5.18457386 L50.08346,5.18457386 L50.08346,17.7071763 Z M50.08346,3.24557103 L53.5236263,3.24557103 L53.5236263,0.411032857 L50.08346,0.411032857 L50.08346,3.24557103 Z" id="Fill-13" fill="#FEFEFE" mask="url(#mask-4)"></path>
                <path d="M54.8862896,7.48417362 L54.8862896,5.18377959 L56.9444324,5.18377959 L56.9444324,4.2147746 C56.9444324,3.10081598 57.2919239,2.18840247 57.986907,1.47852688 C58.6799044,0.766665632 59.7313146,0.411231423 61.1361732,0.411231423 C61.4419658,0.411231423 61.749744,0.424138252 62.0575223,0.447966244 C62.3613292,0.472787068 62.6611647,0.492643728 62.9510719,0.508529056 L62.9510719,3.07698799 C62.5479818,3.02734634 62.1280134,3.00351835 61.6921597,3.00351835 C61.2245354,3.00351835 60.8889578,3.11272998 60.6884056,3.3301604 C60.4868605,3.54858366 60.3855915,3.91593187 60.3855915,4.43319785 L60.3855915,5.18377959 L62.7584623,5.18377959 L62.7584623,7.48417362 L60.3855915,7.48417362 L60.3855915,17.7063821 L56.9444324,17.7063821 L56.9444324,7.48417362 L54.8862896,7.48417362 Z" id="Fill-14" fill="#FEFEFE" mask="url(#mask-4)"></path>
                <path d="M65.0901306,17.7071763 L68.5302969,17.7071763 L68.5302969,5.18457386 L65.0901306,5.18457386 L65.0901306,17.7071763 Z M65.0901306,3.24557103 L68.5302969,3.24557103 L68.5302969,0.411032857 L65.0901306,0.411032857 L65.0901306,3.24557103 Z" id="Fill-15" fill="#FEFEFE" mask="url(#mask-4)"></path>
                <path d="M77.8426732,8.114424 C77.4316403,7.66268499 76.8041699,7.43631907 75.965226,7.43631907 C75.4161894,7.43631907 74.9614719,7.52964537 74.5971022,7.71530514 C74.2327325,7.90096491 73.9428252,8.13030933 73.7253948,8.40433123 C73.5069715,8.6803388 73.3540753,8.97024604 73.2647203,9.27802426 C73.1763582,9.58480966 73.123738,9.85783873 73.1078527,10.1010828 L78.7014737,10.1010828 C78.5426205,9.22838261 78.2556917,8.56616301 77.8426732,8.114424 M73.9547392,14.7038565 C74.4720052,15.2032515 75.2156371,15.4534454 76.1826564,15.4534454 C76.8776395,15.4534454 77.475325,15.2796997 77.9767057,14.933201 C78.4770935,14.5867022 78.7838789,14.2183612 78.8970618,13.8301635 L81.9232168,13.8301635 C81.4406999,15.3333126 80.697068,16.4075579 79.6972852,17.0528994 C78.6925382,17.6982408 77.4842605,18.0219044 76.0625237,18.0219044 C75.0766405,18.0219044 74.188055,17.8640439 73.3977599,17.5493159 C72.6074649,17.2345878 71.9363098,16.7868201 71.3872731,16.2040272 C70.8382365,15.6232199 70.4152896,14.9292296 70.1154541,14.1220564 C69.8176042,13.3148832 69.6676864,12.4262977 69.6676864,11.4572927 C69.6676864,10.5210512 69.8225683,9.64835097 70.1273681,8.84117775 C70.4351463,8.0330117 70.8700071,7.33505011 71.4369148,6.74630015 C72.0008439,6.15655735 72.6749775,5.69290435 73.4583227,5.35335547 C74.241668,5.01380658 75.109404,4.84502498 76.0625237,4.84502498 C77.1278335,4.84502498 78.058118,5.0505414 78.8494059,5.46256709 C79.6406937,5.87459278 80.2900065,6.42660792 80.7993298,7.12159101 C81.3066675,7.81657411 81.6740157,8.607862 81.8993888,9.49545469 C82.1257547,10.3840402 82.207167,11.3123391 82.1426329,12.281344 L73.1078527,12.281344 C73.1555087,13.3953027 73.4384661,14.2024759 73.9547392,14.7038565" id="Fill-16" fill="#FEFEFE" mask="url(#mask-4)"></path>
                <path d="M92.4366231,9.91879867 C92.3403183,9.44323167 92.1745152,9.02326332 91.9411995,8.65889361 C91.7078837,8.29650957 91.4040768,8.00163817 91.0327573,7.77527225 C90.6614377,7.54890633 90.1928206,7.4367162 89.6278986,7.4367162 C89.0639695,7.4367162 88.585424,7.54890633 88.1982191,7.77527225 C87.8110142,8.00163817 87.4992647,8.29948807 87.2649561,8.67180044 C87.0316403,9.04411281 86.8628587,9.46705966 86.7576184,9.94262666 C86.6513853,10.4201793 86.6007508,10.9165958 86.6007508,11.432869 C86.6007508,11.9173715 86.6563495,12.401874 86.7685396,12.8863765 C86.8817226,13.3718718 87.0644038,13.8027613 87.3145977,14.1820235 C87.5657845,14.5632714 87.8785269,14.8690639 88.2597748,15.1023797 C88.639037,15.3376811 89.0957401,15.4538426 89.6278986,15.4538426 C90.1928206,15.4538426 90.6654091,15.3416524 91.0456641,15.1152865 C91.4239335,14.8889206 91.7277404,14.5861065 91.9541063,14.2068443 C92.1784866,13.8275821 92.3403183,13.394707 92.4366231,12.9111973 C92.5349136,12.425702 92.5825696,11.9253141 92.5825696,11.409041 C92.5825696,10.8927678 92.5349136,10.3953585 92.4366231,9.91879867 L92.4366231,9.91879867 Z M92.5825696,16.1081195 C92.1784866,16.7862244 91.6502994,17.2756911 90.9960225,17.573541 C90.3427384,17.8723837 89.6040706,18.0213087 88.7800192,18.0213087 C87.8417921,18.0213087 87.0197264,17.8406131 86.3098508,17.4762434 C85.5989823,17.1138593 85.0122181,16.6214142 84.5535292,15.9999007 C84.0918619,15.3783873 83.7443703,14.6635475 83.5110546,13.8553815 C83.276746,13.0482082 83.1605845,12.2092644 83.1605845,11.3365642 C83.1605845,10.4976203 83.276746,9.68548292 83.5110546,8.90213769 C83.7443703,8.11879247 84.0918619,7.42877354 84.5535292,6.83009525 C85.0122181,6.23439546 85.5900468,5.75287146 86.2850299,5.38949459 C86.9790202,5.02611771 87.7861934,4.84542211 88.7075424,4.84542211 C89.4501815,4.84542211 90.1570786,5.00129689 90.8252552,5.31701778 C91.4974031,5.63174583 92.0255903,6.09539884 92.413788,6.70996246 L92.461444,6.70996246 L92.461444,0.41142999 L95.9006174,0.41142999 L95.9006174,17.7065806 L92.6312184,17.7065806 L92.6312184,16.1081195 L92.5825696,16.1081195 Z" id="Fill-17" fill="#FEFEFE" mask="url(#mask-4)"></path>
                <path d="M8.648866,150.670845 C8.47512023,149.459589 7.3154913,148.539232 5.98509509,148.539232 C3.58144643,148.539232 2.67598275,150.586454 2.67598275,152.719059 C2.67598275,154.746424 3.58144643,156.794639 5.98509509,156.794639 C7.62227669,156.794639 8.54759703,155.668766 8.7481493,154.064348 L11.3454004,154.064348 C11.0703857,157.102417 8.97153672,159.046384 5.98509509,159.046384 C2.21630108,159.046384 0.000297849896,156.231702 0.000297849896,152.719059 C0.000297849896,149.102169 2.21630108,146.286494 5.98509509,146.286494 C8.66475133,146.286494 10.9145109,147.857156 11.2401601,150.670845 L8.648866,150.670845 Z" id="Fill-18" fill="#FEFEFE" mask="url(#mask-4)"></path>
                <path d="M16.9356458,157.16983 C18.5897056,157.16983 19.0831436,155.753058 19.0831436,154.356142 C19.0831436,152.940362 18.5897056,151.524582 16.9356458,151.524582 C15.299457,151.524582 14.8010549,152.940362 14.8010549,154.356142 C14.8010549,155.753058 15.299457,157.16983 16.9356458,157.16983 M16.9356458,149.700748 C19.716571,149.700748 21.5066489,151.539474 21.5066489,154.356142 C21.5066489,157.152952 19.716571,158.99565 16.9356458,158.99565 C14.1715988,158.99565 12.3815209,157.152952 12.3815209,154.356142 C12.3815209,151.539474 14.1715988,149.700748 16.9356458,149.700748" id="Fill-19" fill="#FEFEFE" mask="url(#mask-4)"></path>
                <path d="M23.0012597,149.922348 L25.3006609,149.922348 L25.3006609,151.558537 L25.3373957,151.558537 C25.7782135,150.451528 26.9735844,149.685061 28.15307,149.685061 C28.3228445,149.685061 28.5253824,149.716832 28.6832428,149.768459 L28.6832428,152.019211 C28.4568769,151.96957 28.1014427,151.935813 27.8125283,151.935813 C26.0363501,151.935813 25.4207936,153.215575 25.4207936,154.76638 L25.4207936,158.741683 L23.0012597,158.741683 L23.0012597,149.922348 Z" id="Fill-20" fill="#FEFEFE" mask="url(#mask-4)"></path>
                <path d="M36.1766498,154.373615 C36.1766498,152.971735 35.6137135,151.525178 34.0619155,151.525178 C32.4753684,151.525178 31.9650523,152.940957 31.9650523,154.373615 C31.9650523,155.804288 32.5111104,157.169433 34.0797865,157.169433 C35.6673265,157.169433 36.1766498,155.804288 36.1766498,154.373615 L36.1766498,154.373615 Z M29.6279234,149.937638 L31.9322888,149.937638 L31.9322888,151.062517 L31.9650523,151.062517 C32.5438739,150.126276 33.4989792,149.700351 34.5891099,149.700351 C37.3551426,149.700351 38.5971766,151.933232 38.5971766,154.439142 C38.5971766,156.794142 37.3045081,158.995253 34.7271136,158.995253 C33.6707394,158.995253 32.6649995,158.533586 32.0851851,157.663864 L32.0494431,157.663864 L32.0494431,161.860569 L29.6279234,161.860569 L29.6279234,149.937638 Z" id="Fill-21" fill="#FEFEFE" mask="url(#mask-4)"></path>
                <path d="M43.9137973,157.16983 C45.5688499,157.16983 46.0642735,155.753058 46.0642735,154.356142 C46.0642735,152.940362 45.5688499,151.524582 43.9137973,151.524582 C42.2795942,151.524582 41.7831777,152.940362 41.7831777,154.356142 C41.7831777,155.753058 42.2795942,157.16983 43.9137973,157.16983 M43.9137973,149.700748 C46.6957153,149.700748 48.4887717,151.539474 48.4887717,154.356142 C48.4887717,157.152952 46.6957153,158.99565 43.9137973,158.99565 C41.1527287,158.99565 39.361658,157.152952 39.361658,154.356142 C39.361658,151.539474 41.1527287,149.700748 43.9137973,149.700748" id="Fill-22" fill="#FEFEFE" mask="url(#mask-4)"></path>
                <path d="M49.9832832,149.922348 L52.2856629,149.922348 L52.2856629,151.558537 L52.3223977,151.558537 C52.7632155,150.451528 53.9575936,149.685061 55.1341007,149.685061 C55.3038752,149.685061 55.5103844,149.716832 55.6642735,149.768459 L55.6642735,152.019211 C55.4418789,151.96957 55.0834662,151.935813 54.7945518,151.935813 C53.0203593,151.935813 52.4048028,153.215575 52.4048028,154.76638 L52.4048028,158.741683 L49.9832832,158.741683 L49.9832832,149.922348 Z" id="Fill-23" fill="#FEFEFE" mask="url(#mask-4)"></path>
                <path d="M61.9728336,154.43954 C61.5608079,154.799938 60.70995,154.813838 59.9583755,154.952834 C59.2077937,155.102752 58.5247246,155.362874 58.5247246,156.248481 C58.5247246,157.152952 59.2246719,157.372368 60.0109956,157.372368 C61.9023425,157.372368 61.9728336,155.874183 61.9728336,155.34401 L61.9728336,154.43954 Z M56.3742484,152.649462 C56.513245,150.379845 58.5416028,149.700748 60.5203189,149.700748 C62.2766405,149.700748 64.3933604,150.090931 64.3933604,152.204673 L64.3933604,156.794539 C64.3933604,157.597741 64.4767584,158.396972 64.7031243,158.75737 L62.2428842,158.75737 C62.160479,158.481363 62.0889951,158.193441 62.0711241,157.901548 C61.3056498,158.705743 60.1807701,158.99565 59.1055319,158.99565 C57.4336012,158.99565 56.1041978,158.159685 56.1041978,156.34975 C56.1041978,154.356142 57.6083398,153.879582 59.1055319,153.674065 C60.5898173,153.450678 61.9728336,153.503298 61.9728336,152.512451 C61.9728336,151.473947 61.2520369,151.319065 60.4021718,151.319065 C59.47983,151.319065 58.885123,151.693364 58.7977537,152.649462 L56.3742484,152.649462 Z" id="Fill-24" fill="#FEFEFE" mask="url(#mask-4)"></path>
                <path d="M69.2853464,149.937836 L71.0605318,149.937836 L71.0605318,151.55814 L69.2853464,151.55814 L69.2853464,155.921641 C69.2853464,156.742714 69.4918557,156.94823 70.3079644,156.94823 C70.5651081,156.94823 70.8043809,156.930359 71.0605318,156.880717 L71.0605318,158.77405 C70.6485061,158.842555 70.1193261,158.858441 69.6417734,158.858441 C68.1624523,158.858441 66.8648196,158.515913 66.8648196,156.759592 L66.8648196,151.55814 L65.3964196,151.55814 L65.3964196,149.937836 L66.8648196,149.937836 L66.8648196,147.292929 L69.2853464,147.292929 L69.2853464,149.937836 Z" id="Fill-25" fill="#FEFEFE" mask="url(#mask-4)"></path>
                <path d="M72.8868481,158.756973 L75.3093606,158.756973 L75.3093606,149.937638 L72.8868481,149.937638 L72.8868481,158.756973 Z M72.8878409,148.572492 L75.3103534,148.572492 L75.3103534,146.575905 L72.8878409,146.575905 L72.8878409,148.572492 Z" id="Fill-26" fill="#FEFEFE" mask="url(#mask-4)"></path>
                <path d="M81.4882566,157.16983 C83.1462877,157.16983 83.6387329,155.753058 83.6387329,154.356142 C83.6387329,152.940362 83.1462877,151.524582 81.4882566,151.524582 C79.8520679,151.524582 79.3566442,152.940362 79.3566442,154.356142 C79.3566442,155.753058 79.8520679,157.16983 81.4882566,157.16983 M81.4882566,149.700748 C84.2701747,149.700748 86.0642239,151.539474 86.0642239,154.356142 C86.0642239,157.152952 84.2701747,158.99565 81.4882566,158.99565 C78.7271881,158.99565 76.9381031,157.152952 76.9381031,154.356142 C76.9381031,151.539474 78.7271881,149.700748 81.4882566,149.700748" id="Fill-27" fill="#FEFEFE" mask="url(#mask-4)"></path>
                <path d="M87.6285315,149.937836 L89.9319041,149.937836 L89.9319041,151.165971 L89.9825385,151.165971 C90.5971022,150.176116 91.6544693,149.700549 92.6790729,149.700549 C95.2544817,149.700549 95.900816,151.149092 95.900816,153.332332 L95.900816,158.757172 L93.4802892,158.757172 L93.4802892,153.775136 C93.4802892,152.3256 93.0523781,151.607781 91.9284912,151.607781 C90.6129875,151.607781 90.0500512,152.342478 90.0500512,154.135534 L90.0500512,158.757172 L87.6285315,158.757172 L87.6285315,149.937836 Z" id="Fill-28" fill="#FEFEFE" mask="url(#mask-4)"></path>
            </g>
        </g>
    </g>
</svg>