<?xml version="1.0" encoding="UTF-8"?>
<svg width="503px" height="128px" viewBox="0 0 503 128" version="1.1" xmlns="http://www.w3.org/2000/svg" xmlns:xlink="http://www.w3.org/1999/xlink">
    <title>Group 40 Copy 3</title>
    <defs>
        <polygon id="path-1" points="0 0 121.917607 0 121.917607 128 0 128"></polygon>
    </defs>
    <g id="Home" stroke="none" stroke-width="1" fill="none" fill-rule="evenodd">
        <g id="1600-Desktop" transform="translate(-549.000000, -4990.000000)">
            <g id="Group-18-Copy-3" transform="translate(0.000000, 4734.000000)">
                <g id="Group-40-Copy-3" transform="translate(549.000000, 256.000000)">
                    <path d="M229.471592,38.9675911 C223.442584,38.9675911 219.376811,43.6260465 219.376811,49.6147071 C219.376811,55.6070171 223.442584,60.2654725 229.471592,60.2654725 C235.502457,60.2654725 239.566373,55.6070171 239.566373,49.6147071 C239.566373,43.6260465 235.502457,38.9675911 229.471592,38.9675911 M228.117573,32.3110908 C232.993157,32.3110908 237.05893,34.7744338 238.957157,37.436669 L238.957157,32.975281 L246.408907,32.975281 L246.408907,66.2559579 L238.957157,66.2559579 L238.957157,61.7945699 C237.05893,64.4568051 232.993157,66.9219728 228.117573,66.9219728 C218.836318,66.9219728 211.789474,59.1341594 211.789474,49.6147071 C211.789474,40.0989042 218.836318,32.3110908 228.117573,32.3110908" id="Fill-1" fill="#FEFEFE"></path>
                    <polygon id="Fill-3" fill="#FEFEFE" points="252.518219 66.9219728 260.663968 66.9219728 260.663968 16.0236168 252.518219 16.0236168"></polygon>
                    <g id="Group-8" transform="translate(265.698848, 15.662414)" fill="#FEFEFE">
                        <path d="M17.6601724,44.2046956 C23.5918615,44.2046956 27.7699142,39.6121896 27.7699142,33.6853744 C27.7699142,27.7603846 23.5918615,23.1660533 17.6601724,23.1660533 C11.6619596,23.1660533 7.482059,27.7603846 7.482059,33.6853744 C7.482059,39.6121896 11.6619596,44.2046956 17.6601724,44.2046956 M17.6601724,50.9967127 C7.68347773,50.9967127 0,43.3413191 0,33.6853744 C0,24.0312551 7.68347773,16.3758615 17.6601724,16.3758615 C27.6350191,16.3758615 35.3203447,24.0312551 35.3203447,33.6853744 C35.3203447,43.3413191 27.6350191,50.9967127 17.6601724,50.9967127" id="Fill-4"></path>
                        <path d="M88.3051119,17.0357148 L88.3051119,12.3209124 C88.3051119,8.19386306 88.547184,6.65876865 92.3852271,6.65876865 C92.3889229,6.65876865 93.9670109,6.65694333 93.9725545,6.65694333 L97.9491885,6.65694333 L97.9491885,0 L92.2688108,0.00547596106 C85.8659127,0.0693621734 80.8895766,4.05586182 80.8895766,11.4484093 L80.8895766,17.0357148 L70.3548227,17.0357148 L62.9392873,23.5648858 L62.9392873,33.4216157 C62.9392873,40.545841 59.4929944,44.3370314 54.718077,44.3370314 C50.3940419,44.3370314 47.9770172,41.0806599 47.9770172,35.7525497 L47.9770172,17.0357148 L40.5614818,17.0357148 L40.5614818,36.9572612 C40.5614818,45.463254 45.3363992,50.9958 53.0900963,50.9958 C57.4141314,50.9958 60.9916236,49.126672 62.9392873,45.7972876 L62.9392873,50.3295581 L70.3548227,50.3295581 L70.3548227,23.5648858 L80.8895766,23.5648858 L80.8895766,50.3295581 L88.3051119,50.3295581 L88.3051119,23.5648858 L97.9491885,23.5648858 L97.9491885,17.0357148 L88.3051119,17.0357148 Z" id="Fill-6"></path>
                    </g>
                    <polygon id="Fill-9" fill="#FEFEFE" points="193.701756 16.0236168 181.242915 63.9278434 168.784074 16.0236168 154.769231 16.0236168 154.769231 66.9219728 162.554653 66.9219728 162.554653 22.0118756 174.233688 66.9219728 180.464914 66.9219728 182.022721 66.9219728 188.250336 66.9219728 199.929372 22.0118756 199.929372 66.9219728 207.716599 66.9219728 207.716599 16.0236168"></polygon>
                    <polygon id="Fill-10" fill="#FEFEFE" points="154.769231 77.101644 154.769231 125.964066 162.673717 125.964066 162.673717 105.043597 178.888379 105.043597 178.888379 97.4031753 162.673717 97.4031753 162.673717 84.809382 183.279352 84.809382 183.279352 77.101644"></polygon>
                    <g id="Group-23" transform="translate(183.047673, 75.641598)" fill="#FEFEFE">
                        <path d="M27.8161676,33.2847166 C27.8161676,39.2644661 23.6298922,43.8989545 17.6880227,43.8989545 C11.6801121,43.8989545 7.49383662,39.2644661 7.49383662,33.2847166 C7.49383662,27.3049672 11.6801121,22.6704788 17.6880227,22.6704788 C23.6298922,22.6704788 27.8161676,27.3049672 27.8161676,33.2847166 M35.3778798,33.2847166 C35.3778798,23.5429819 27.6804163,15.8182262 17.6880227,15.8182262 C7.69562904,15.8182262 0,23.5429819 0,33.2847166 C0,43.0264513 7.69562904,50.7512071 17.6880227,50.7512071 C27.6804163,50.7512071 35.3778798,43.0264513 35.3778798,33.2847166" id="Fill-11"></path>
                        <path d="M41.0493475,36.5764994 C41.0493475,45.1755835 45.8428347,50.7519372 53.6081738,50.7519372 C57.928366,50.7519372 61.5074297,48.8700319 63.4648162,45.5114425 L63.4648162,50.0802193 L70.8926116,50.0802193 L70.8926116,16.4888489 L63.4648162,16.4888489 L63.4648162,33.0152993 C63.4648162,40.2034109 60.0215037,44.032933 55.2280166,44.032933 C50.9059899,44.032933 48.4771429,40.7418804 48.4771429,35.3681373 L48.4771429,16.4888489 L41.0493475,16.4888489 L41.0493475,36.5764994 Z" id="Fill-13"></path>
                        <path d="M78.1830048,50.0794892 L85.6089658,50.0794892 L85.6089658,33.5530387 C85.6089658,26.3649272 89.3898219,22.5354051 94.3190604,22.5354051 C98.6410871,22.5354051 101.341437,25.7607461 101.341437,31.0669524 L101.341437,50.0794892 L108.767397,50.0794892 L108.767397,29.8585903 C108.767397,21.327043 103.704242,15.8182262 95.872862,15.8182262 C91.4829596,15.8182262 87.6360624,17.6983061 85.6089658,21.0587209 L85.6089658,16.4899441 L78.1830048,16.4899441 L78.1830048,50.0794892 Z" id="Fill-15"></path>
                        <path d="M142.188258,33.2847166 C142.188258,39.3301776 138.137734,44.0340282 132.127989,44.0340282 C126.120078,44.0340282 122.067719,39.3301776 122.067719,33.2847166 C122.067719,27.2374303 126.120078,22.5354051 132.127989,22.5354051 C138.137734,22.5354051 142.188258,27.2374303 142.188258,33.2847166 L142.188258,33.2847166 Z M149.007007,50.0794892 L149.007007,0 L141.581046,0 L141.581046,20.9911841 C139.689701,18.3043125 135.639177,15.8182262 130.777814,15.8182262 C121.528383,15.8182262 114.506007,23.6780556 114.506007,33.2847166 C114.506007,42.8913776 121.528383,50.7512071 130.777814,50.7512071 C135.639177,50.7512071 139.689701,48.2651208 141.581046,45.5782492 L141.581046,50.0794892 L149.007007,50.0794892 Z" id="Fill-17"></path>
                        <path d="M182.967754,33.2847166 C182.967754,39.3301776 178.91723,44.0340282 172.907484,44.0340282 C166.899574,44.0340282 162.847215,39.3301776 162.847215,33.2847166 C162.847215,27.2374303 166.899574,22.5354051 172.907484,22.5354051 C178.91723,22.5354051 182.967754,27.2374303 182.967754,33.2847166 L182.967754,33.2847166 Z M189.786503,50.0794892 L189.786503,16.4899441 L182.360542,16.4899441 L182.360542,20.9911841 C180.469197,18.3043125 176.418673,15.8182262 171.55731,15.8182262 C162.307879,15.8182262 155.285503,23.6780556 155.285503,33.2847166 C155.285503,42.8913776 162.307879,50.7512071 171.55731,50.7512071 C176.418673,50.7512071 180.469197,48.2651208 182.360542,45.5782492 L182.360542,50.0794892 L189.786503,50.0794892 Z" id="Fill-19"></path>
                        <path d="M218.683728,49.6762759 L218.683728,43.0923454 C217.603221,43.4957412 216.117295,43.7640633 214.701079,43.7640633 C210.852347,43.7640633 209.028878,42.2198423 209.028878,38.0544612 L209.028878,23.0740571 L218.683728,23.0740571 L218.683728,16.4901266 L209.028878,16.4901266 L209.028878,8.39848147 L201.601082,8.39848147 L201.601082,16.4901266 L194.580541,16.4901266 L194.580541,23.0740571 L201.601082,23.0740571 L201.601082,39.2628233 C201.601082,46.8543307 206.666072,50.4155307 213.147277,50.4155307 C215.442208,50.4155307 217.197802,50.1472086 218.683728,49.6762759" id="Fill-21"></path>
                    </g>
                    <polygon id="Fill-24" fill="#FEFEFE" points="407.287449 125.964066 415.433198 125.964066 415.433198 91.3531837 407.287449 91.3531837"></polygon>
                    <polygon id="Fill-25" fill="#FEFEFE" points="407.287449 83.2094467 415.433198 83.2094467 415.433198 75.0657098 407.287449 75.0657098"></polygon>
                    <g id="Group-30" transform="translate(420.821469, 91.125208)" fill="#FEFEFE">
                        <path d="M27.7906482,17.62644 C27.7906482,23.6609491 23.6082134,28.3378778 17.6717951,28.3378778 C11.6693964,28.3378778 7.48696154,23.6609491 7.48696154,17.62644 C7.48696154,11.5919309 11.6693964,6.91500217 17.6717951,6.91500217 C23.6082134,6.91500217 27.7906482,11.5919309 27.7906482,17.62644 M35.3454231,17.62644 C35.3454231,7.79549525 27.6550215,0 17.6717951,0 C7.68856883,0 0,7.79549525 0,17.62644 C0,27.4573847 7.68856883,35.25288 17.6717951,35.25288 C27.6550215,35.25288 35.3454231,27.4573847 35.3454231,17.62644" id="Fill-26"></path>
                        <path d="M40.1350624,34.5750108 L47.5542106,34.5750108 L47.5542106,17.8972193 C47.5542106,10.6432825 51.3334308,6.77869152 56.2563142,6.77869152 C60.5743757,6.77869152 63.2722478,10.0335687 63.2722478,15.3883666 L63.2722478,34.5750108 L70.691396,34.5750108 L70.691396,14.1689389 C70.691396,5.55926386 65.6328859,0 57.8086903,0 C53.4228154,0 49.5794474,1.89729681 47.5542106,5.28848461 L47.5542106,0.677869152 L40.1350624,0.677869152 L40.1350624,34.5750108 Z" id="Fill-28"></path>
                    </g>
                    <path d="M502.292096,121.892197 L501.477521,123.439011 L500.651309,121.892197 L499.945344,121.892197 L499.945344,125.964066 L500.668764,125.964066 L500.668764,123.481219 L501.477521,124.995756 L502.27658,123.491151 L502.27658,125.964066 L503,125.964066 L503,121.892197 L502.292096,121.892197 Z M496.890688,121.892197 L496.890688,122.82823 L497.784781,122.82823 L497.784781,125.964066 L498.533414,125.964066 L498.533414,122.82823 L499.425568,122.82823 L499.425568,121.892197 L496.890688,121.892197 Z" id="Fill-31" fill="#FEFEFE"></path>
                    <g id="Group-39">
                        <path d="M97.3539798,24.0901512 L96.6099204,30.1771874 C96.7394013,30.2999542 96.8652349,30.4208887 96.9910685,30.5491525 C107.170823,40.7809437 112.778624,54.3824095 112.778624,68.8505726 C112.778624,69.363628 112.77133,69.8766835 112.754916,70.3860742 C114.750017,70.9376088 116.353027,71.723683 117.622305,72.5665598 C117.6989,71.3370591 117.737197,70.0983967 117.737197,68.8505726 C117.737197,50.9632616 109.837036,34.9321118 97.3539798,24.0901512 M58.8707869,9.6989464 C56.6623163,9.6989464 54.4793771,9.82171324 52.3365588,10.0599175 C52.3183221,10.0635822 52.301909,10.0635822 52.2836722,10.0672469 L54.0763449,14.8918003 L54.0799923,14.8918003 C54.098229,14.8918003 54.1146421,14.8881356 54.1328788,14.8881356 C55.7012395,14.75071 57.2805421,14.6810811 58.8707869,14.6810811 C63.8603621,14.6810811 68.7459878,15.3608795 73.4218909,16.6710032 L73.4255382,16.6710032 C74.9136571,14.9192854 76.1920534,13.6128264 77.2370193,12.6398534 C71.4577927,10.7305543 65.286476,9.6989464 58.8707869,9.6989464" id="Fill-32" fill="#FEFEFE"></path>
                        <g id="Group-36">
                            <mask id="mask-2" fill="white">
                                <use xlink:href="#path-1"></use>
                            </mask>
                            <g id="Clip-35"></g>
                            <path d="M121.494515,86.8240037 C121.312147,86.1955108 121.120661,85.5670179 120.903644,84.9458543 C120.480551,83.712689 119.971746,82.5015117 119.346226,81.3508016 C118.195486,79.2326157 116.599771,77.3159872 114.551784,76.051672 C111.230871,74.0049473 107.003592,73.8821805 103.235879,74.8698122 C101.049293,75.4451672 98.9703031,76.3613376 96.9715551,77.4149336 C95.9575918,77.9481448 94.9582178,78.5234998 93.9697858,79.1061842 C93.8184208,79.1978012 92.0330428,80.4621164 91.9637432,80.4621164 C90.1947783,79.2894182 88.5644127,77.8327073 86.9978758,76.4071461 C84.1857687,73.8510307 81.5578528,71.0951901 79.0630652,68.2257444 C75.3938308,64.0058635 72.0255028,59.5257902 68.9106657,54.8844709 C61.7764485,44.2605589 54.0258291,29.8510307 47.2873494,10.8111773 C46.0654871,7.36087952 44.8800983,3.75849748 43.7348303,-0.00146587265 C40.6947638,0.570224462 38.4261119,2.04525882 36.7392124,4.02052222 C36.9999979,6.23398992 38.094203,9.60732936 39.3762467,12.9879982 C41.5117703,18.6169492 44.1633939,24.2623912 44.3184063,24.6123683 C41.5008282,21.7172698 38.4261119,17.6439762 36.0462158,14.2761338 C34.5398602,12.1414567 33.3107031,10.2889601 32.6012935,9.20604672 C28.9502958,15.3480531 26.895014,24.201924 32.5356412,29.8272103 C34.6109835,31.8940907 37.1130658,33.4680715 39.2613551,35.4543289 C40.4084468,36.5152542 41.462531,37.6842877 42.3123636,39.0017407 C42.7664588,39.7108566 43.1676673,40.4584517 43.4941051,41.2371965 C43.8387797,42.0415941 43.9573186,42.9962437 44.331172,43.7694915 C41.9494523,38.8496564 38.2729232,37.9902886 34.6000415,36.3081997 C40.9318416,46.7745305 40.6874691,54.4941823 41.1835087,59.1959689 C41.9075078,58.8093449 42.5950333,58.3604214 43.2004934,57.8125515 C43.9190215,57.1730646 44.5171869,56.3869904 44.8764509,55.4085204 L44.8800983,55.3975263 C44.9402795,55.2326157 45.325075,53.8693541 45.325075,53.8693541 C45.325075,53.8693541 45.470969,55.3517178 45.4855584,55.4634906 C45.6496892,56.6013743 45.4746164,57.847366 45.0551711,58.9852497 C44.6466678,60.1396244 44.0320893,61.2042144 43.3427401,62.1973431 C43.0947203,62.5491525 42.8394058,62.8899679 42.5713255,63.223454 C47.2709364,69.8840128 53.7449831,67.7200183 56.2798916,72.2459001 C57.3759204,74.6902428 51.6805829,77.7172698 52.6690148,79.4689876 C54.3048514,82.9614292 57.1242532,82.5857994 57.8172497,84.5519011 C58.8676866,87.2949153 56.0975241,88.3265231 58.096272,91.3425561 C61.2019908,96.0186899 60.9375579,101.567018 53.347422,105.579844 C44.5974286,109.708108 35.6559494,109.519377 29.9168437,114.563811 C26.6396994,112.458452 23.5686305,109.982959 20.7510524,107.151993 C10.5658267,96.9220339 4.95802562,83.3169033 4.95802562,68.8505726 C4.95802562,60.0241869 7.00236546,51.6119102 11.0345112,43.8427852 C14.4867283,37.185891 19.3541172,31.2527714 25.1971724,26.5473202 C24.5752992,24.5702245 24.4038737,22.572973 24.4275815,20.8780577 C24.396579,20.8982135 24.3655765,20.9202016 24.3363977,20.944022 C9.59016049,31.6943656 -0.000547102544,49.1474118 -0.000547102544,68.8505726 C-0.000547102544,101.517545 26.3570298,128.000366 58.871334,128.000366 C67.0906379,128.000366 74.9142042,126.305451 82.0192426,123.247274 C76.6685797,123.106184 72.5488976,121.852863 71.5385815,121.519377 C67.4371361,122.512506 63.1916204,123.018232 58.871334,123.018232 C56.788697,123.018232 54.7242967,122.89913 52.6836042,122.66459 C52.9243293,122.28896 53.6866255,121.220705 54.0148871,120.771782 C56.2197103,117.744755 58.8786287,114.754375 62.6426942,113.816216 C67.7052164,112.551901 83.7371446,124.145121 97.4913026,112.945854 C105.951332,106.059918 102.258389,92.223912 109.872233,87.8977554 C112.950597,86.1460376 116.844143,86.7708658 120.181469,87.8427852 C120.785105,88.0388456 121.368681,88.2422355 121.917607,88.4419606 C121.895723,88.3521759 121.547401,87.0072377 121.494515,86.8240037 M43.6710016,120.84874 C41.9038604,120.328355 40.165898,119.718186 38.4644091,119.016399 C42.602328,115.265598 51.2264878,113.843701 51.2264878,113.843701 C48.6405164,115.483646 44.5244816,120.108475 43.6710016,120.84874 M116.112849,82.8698122 C115.715288,83.4433349 115.051471,83.8189647 114.303764,83.8189647 C113.094667,83.8189647 112.111706,82.8349977 112.111706,81.6164911 C112.111706,80.4016491 113.094667,79.4121851 114.303764,79.4121851 C115.407087,79.4121851 116.318925,80.2275767 116.47029,81.2903344 C116.49035,81.3966102 116.497645,81.5047183 116.497645,81.6164911 C116.497645,82.083738 116.357222,82.5125057 116.112849,82.8698122" id="Fill-34" fill="#FEFEFE" mask="url(#mask-2)"></path>
                        </g>
                        <path d="M94.7029033,73.42776 L94.7029033,73.4314246 C93.7454738,73.9298213 92.8828755,74.428218 92.138816,74.8844709 C89.3011775,72.5152542 84.1073507,67.7016949 77.9962152,59.7804856 C74.1482607,54.7946862 70.4735553,49.2793404 67.0301822,43.3278974 C66.9958068,36.6123683 70.2419485,26.7177279 77.0843777,19.0713697 C78.446663,17.5468621 80.1317388,15.9252405 82.1414288,14.4502061 C83.1955131,13.6787907 84.33531,12.9513514 85.5644671,12.2953733 C85.5061095,13.2958314 85.4422809,14.5656436 85.396689,15.9783784 C85.2817974,19.5276225 85.2745027,24.0003665 85.7158321,27.4836464 C85.7158321,27.4836464 86.7644453,22.417224 88.1759699,17.4808978 C88.9692686,14.7103985 89.8738115,11.9783784 90.774707,10.2156665 C92.1479344,9.83637197 93.6014035,9.56335318 95.1332906,9.4295923 C94.6044248,11.7676592 93.7874183,15.6687128 93.0014143,20.5940449 C92.5017274,23.7548328 92.0129824,27.3388914 91.6245396,31.1941365 C89.9121086,48.2862116 90.9497798,62.4776913 94.7029033,73.42776" id="Fill-37" fill="#FEFEFE"></path>
                    </g>
                </g>
            </g>
        </g>
    </g>
</svg>